<svg width="158" height="19" viewBox="0 0 158 19" fill="none" xmlns="http://www.w3.org/2000/svg">
<path d="M4.656 16.6C4.54933 16.6 4.45333 16.5627 4.368 16.488C4.29333 16.4133 4.256 16.3173 4.256 16.2V15.096C3.46667 15 2.78933 14.7973 2.224 14.488C1.66933 14.1787 1.248 13.8053 0.96 13.368C0.682667 12.92 0.533333 12.4453 0.512 11.944C0.512 11.8587 0.544 11.784 0.608 11.72C0.682667 11.6453 0.768 11.608 0.864 11.608H2.88C3.008 11.608 3.10933 11.6347 3.184 11.688C3.26933 11.7307 3.35467 11.8 3.44 11.896C3.57867 12.1733 3.79733 12.4027 4.096 12.584C4.40533 12.7653 4.82133 12.856 5.344 12.856C5.952 12.856 6.416 12.76 6.736 12.568C7.056 12.376 7.216 12.1147 7.216 11.784C7.216 11.5493 7.13067 11.3573 6.96 11.208C6.8 11.0587 6.544 10.9253 6.192 10.808C5.84 10.6907 5.31733 10.5573 4.624 10.408C3.33333 10.152 2.37333 9.76267 1.744 9.24C1.11467 8.71733 0.8 7.976 0.8 7.016C0.8 6.16267 1.10933 5.43733 1.728 4.84C2.34667 4.232 3.18933 3.85867 4.256 3.72V2.6C4.256 2.48267 4.29333 2.38667 4.368 2.312C4.45333 2.23733 4.54933 2.2 4.656 2.2H5.984C6.10133 2.2 6.19733 2.23733 6.272 2.312C6.34667 2.38667 6.384 2.48267 6.384 2.6V3.752C7.088 3.86933 7.69067 4.09333 8.192 4.424C8.704 4.744 9.09333 5.112 9.36 5.528C9.62667 5.944 9.77067 6.35467 9.792 6.76C9.792 6.84533 9.76 6.92533 9.696 7C9.632 7.064 9.552 7.096 9.456 7.096H7.344C7.216 7.096 7.10933 7.07467 7.024 7.032C6.94933 6.98933 6.88 6.92 6.816 6.824C6.752 6.57867 6.576 6.37067 6.288 6.2C6.01067 6.02933 5.664 5.944 5.248 5.944C4.768 5.944 4.4 6.02933 4.144 6.2C3.888 6.37067 3.76 6.62133 3.76 6.952C3.76 7.176 3.82933 7.36267 3.968 7.512C4.11733 7.66133 4.352 7.8 4.672 7.928C5.00267 8.04533 5.472 8.168 6.08 8.296C7.072 8.47733 7.86133 8.70667 8.448 8.984C9.03467 9.25067 9.46667 9.59733 9.744 10.024C10.0213 10.4507 10.16 10.9947 10.16 11.656C10.16 12.5947 9.81867 13.3627 9.136 13.96C8.45333 14.5573 7.536 14.9307 6.384 15.08V16.2C6.384 16.3173 6.34667 16.4133 6.272 16.488C6.19733 16.5627 6.10133 16.6 5.984 16.6H4.656Z" fill="#2959CE"/>
<path d="M19.0254 15C18.9187 15 18.828 14.968 18.7534 14.904C18.6894 14.8293 18.6574 14.7387 18.6574 14.632V5.672L16.0014 7.72C15.9267 7.784 15.8467 7.816 15.7614 7.816C15.6654 7.816 15.5747 7.76267 15.4894 7.656L15.0734 7.128C15.02 7.05333 14.9934 6.97867 14.9934 6.904C14.9934 6.776 15.0467 6.67467 15.1534 6.6L18.6414 3.912C18.7587 3.83733 18.8974 3.8 19.0574 3.8H19.8734C19.98 3.8 20.0654 3.83733 20.1294 3.912C20.204 3.976 20.2414 4.06133 20.2414 4.168V14.632C20.2414 14.7387 20.204 14.8293 20.1294 14.904C20.0654 14.968 19.98 15 19.8734 15H19.0254ZM26.5251 15.16C25.1491 15.16 24.1411 14.76 23.5011 13.96C22.8611 13.16 22.5198 12.1093 22.4771 10.808C22.4665 10.52 22.4611 10.056 22.4611 9.416C22.4611 8.75467 22.4665 8.27467 22.4771 7.976C22.5091 6.696 22.8505 5.656 23.5011 4.856C24.1518 4.04533 25.1598 3.64 26.5251 3.64C27.9011 3.64 28.9145 4.04533 29.5651 4.856C30.2158 5.656 30.5571 6.696 30.5891 7.976C30.6105 8.57333 30.6211 9.05333 30.6211 9.416C30.6211 9.768 30.6105 10.232 30.5891 10.808C30.5465 12.1093 30.2051 13.16 29.5651 13.96C28.9251 14.76 27.9118 15.16 26.5251 15.16ZM26.5251 13.784C27.3251 13.784 27.9278 13.5173 28.3331 12.984C28.7491 12.4507 28.9678 11.6987 28.9891 10.728C29.0105 10.1093 29.0211 9.66133 29.0211 9.384C29.0211 9.08533 29.0105 8.648 28.9891 8.072C28.9678 7.112 28.7545 6.36 28.3491 5.816C27.9438 5.272 27.3358 5 26.5251 5C25.7251 5 25.1171 5.272 24.7011 5.816C24.2958 6.36 24.0825 7.112 24.0611 8.072L24.0451 9.384L24.0611 10.728C24.0825 11.6987 24.2958 12.4507 24.7011 12.984C25.1171 13.5173 25.7251 13.784 26.5251 13.784ZM36.0254 15C35.9187 15 35.828 14.968 35.7534 14.904C35.6894 14.8293 35.6574 14.7387 35.6574 14.632V5.672L33.0014 7.72C32.9267 7.784 32.8467 7.816 32.7614 7.816C32.6654 7.816 32.5747 7.76267 32.4894 7.656L32.0734 7.128C32.02 7.05333 31.9934 6.97867 31.9934 6.904C31.9934 6.776 32.0467 6.67467 32.1534 6.6L35.6414 3.912C35.7587 3.83733 35.8974 3.8 36.0574 3.8H36.8734C36.98 3.8 37.0654 3.83733 37.1294 3.912C37.204 3.976 37.2414 4.06133 37.2414 4.168V14.632C37.2414 14.7387 37.204 14.8293 37.1294 14.904C37.0654 14.968 36.98 15 36.8734 15H36.0254ZM43.2211 15.16C42.3785 15.16 41.6478 15.0267 41.0291 14.76C40.4211 14.4827 39.9571 14.1253 39.6371 13.688C39.3278 13.2507 39.1625 12.792 39.1411 12.312C39.1411 12.216 39.1731 12.1413 39.2371 12.088C39.3011 12.024 39.3811 11.992 39.4771 11.992H40.2611C40.4851 11.992 40.6345 12.1093 40.7091 12.344C40.8478 12.8773 41.1465 13.256 41.6051 13.48C42.0638 13.6933 42.6025 13.8 43.2211 13.8C43.9785 13.8 44.5811 13.624 45.0291 13.272C45.4771 12.9093 45.7011 12.392 45.7011 11.72C45.7011 10.4293 44.9171 9.784 43.3491 9.784H41.8291C41.7225 9.784 41.6318 9.752 41.5571 9.688C41.4931 9.61333 41.4611 9.52267 41.4611 9.416V8.984C41.4611 8.83467 41.5198 8.69067 41.6371 8.552L44.7411 5.16H40.0211C39.9145 5.16 39.8238 5.128 39.7491 5.064C39.6851 4.98933 39.6531 4.89867 39.6531 4.792V4.184C39.6531 4.07733 39.6851 3.98667 39.7491 3.912C39.8238 3.83733 39.9145 3.8 40.0211 3.8H46.4051C46.5225 3.8 46.6131 3.83733 46.6771 3.912C46.7518 3.976 46.7891 4.06667 46.7891 4.184V4.76C46.7891 4.888 46.7305 5.01067 46.6131 5.128L43.5251 8.568L43.7811 8.584C44.8691 8.616 45.7278 8.89867 46.3571 9.432C46.9865 9.96533 47.3011 10.744 47.3011 11.768C47.3011 12.4613 47.1251 13.064 46.7731 13.576C46.4211 14.088 45.9358 14.4827 45.3171 14.76C44.6985 15.0267 43.9998 15.16 43.2211 15.16ZM50.4465 15C50.3505 15 50.2705 14.968 50.2065 14.904C50.1532 14.8293 50.1265 14.744 50.1265 14.648L50.1585 14.504L54.1425 5.192H48.8945C48.7878 5.192 48.6972 5.16 48.6225 5.096C48.5585 5.02133 48.5265 4.93067 48.5265 4.824V4.184C48.5265 4.06667 48.5585 3.976 48.6225 3.912C48.6972 3.83733 48.7878 3.8 48.8945 3.8H55.4545C55.5718 3.8 55.6625 3.83733 55.7265 3.912C55.8012 3.976 55.8385 4.06667 55.8385 4.184V4.776C55.8385 4.968 55.7958 5.176 55.7105 5.4L51.7745 14.6C51.7212 14.7173 51.6572 14.8133 51.5825 14.888C51.5185 14.9627 51.4278 15 51.3105 15H50.4465ZM56.6588 15C56.5521 15 56.4614 14.968 56.3868 14.904C56.3228 14.8293 56.2908 14.7387 56.2908 14.632V13.48C56.2908 13.3733 56.3228 13.288 56.3868 13.224C56.4614 13.1493 56.5521 13.112 56.6588 13.112H57.8108C57.9174 13.112 58.0081 13.1493 58.0828 13.224C58.1574 13.288 58.1948 13.3733 58.1948 13.48V14.632C58.1948 14.7387 58.1574 14.8293 58.0828 14.904C58.0081 14.968 57.9174 15 57.8108 15H56.6588ZM60.402 15C60.2953 15 60.2047 14.968 60.13 14.904C60.066 14.8293 60.034 14.7387 60.034 14.632V14.12C60.034 13.8747 60.1673 13.64 60.434 13.416L63.826 10.024C64.6473 9.34133 65.2127 8.78667 65.522 8.36C65.8313 7.92267 65.986 7.464 65.986 6.984C65.986 6.36533 65.81 5.88 65.458 5.528C65.1167 5.176 64.6153 5 63.954 5C63.3353 5 62.8393 5.18667 62.466 5.56C62.0927 5.92267 61.8633 6.408 61.778 7.016C61.7567 7.144 61.7033 7.24 61.618 7.304C61.5433 7.35733 61.458 7.384 61.362 7.384H60.53C60.434 7.384 60.354 7.35733 60.29 7.304C60.226 7.24 60.194 7.16533 60.194 7.08C60.2153 6.504 60.37 5.95467 60.658 5.432C60.946 4.89867 61.3673 4.46667 61.922 4.136C62.4873 3.79467 63.1647 3.624 63.954 3.624C65.1593 3.624 66.066 3.93867 66.674 4.568C67.2927 5.18667 67.602 5.976 67.602 6.936C67.602 7.608 67.4313 8.216 67.09 8.76C66.7593 9.29333 66.242 9.86933 65.538 10.488L62.466 13.608H67.458C67.5753 13.608 67.666 13.6453 67.73 13.72C67.8047 13.784 67.842 13.8693 67.842 13.976V14.632C67.842 14.7387 67.8047 14.8293 67.73 14.904C67.6553 14.968 67.5647 15 67.458 15H60.402Z" fill="#555555"/>
<path d="M95.632 15C95.5253 15 95.4347 14.9627 95.36 14.888C95.2853 14.8133 95.248 14.7227 95.248 14.616V4.2C95.248 4.08267 95.28 3.98667 95.344 3.912C95.4187 3.83733 95.5147 3.8 95.632 3.8H99.92C101.2 3.8 102.208 4.104 102.944 4.712C103.68 5.30933 104.048 6.18933 104.048 7.352C104.048 8.51467 103.68 9.39467 102.944 9.992C102.219 10.5787 101.211 10.872 99.92 10.872H97.536V14.616C97.536 14.7227 97.4987 14.8133 97.424 14.888C97.36 14.9627 97.2693 15 97.152 15H95.632ZM99.84 9.096C100.459 9.096 100.933 8.952 101.264 8.664C101.595 8.36533 101.76 7.928 101.76 7.352C101.76 6.79733 101.6 6.36533 101.28 6.056C100.96 5.736 100.48 5.576 99.84 5.576H97.504V9.096H99.84Z" fill="#2959CE"/>
<path d="M112.885 15C112.778 15 112.687 14.968 112.613 14.904C112.549 14.8293 112.517 14.7387 112.517 14.632V5.672L109.861 7.72C109.786 7.784 109.706 7.816 109.621 7.816C109.525 7.816 109.434 7.76267 109.349 7.656L108.933 7.128C108.879 7.05333 108.853 6.97867 108.853 6.904C108.853 6.776 108.906 6.67467 109.013 6.6L112.501 3.912C112.618 3.83733 112.757 3.8 112.917 3.8H113.733C113.839 3.8 113.925 3.83733 113.989 3.912C114.063 3.976 114.101 4.06133 114.101 4.168V14.632C114.101 14.7387 114.063 14.8293 113.989 14.904C113.925 14.968 113.839 15 113.733 15H112.885ZM120.081 15.16C119.238 15.16 118.507 15.0267 117.889 14.76C117.281 14.4827 116.817 14.1253 116.497 13.688C116.187 13.2507 116.022 12.792 116.001 12.312C116.001 12.216 116.033 12.1413 116.097 12.088C116.161 12.024 116.241 11.992 116.337 11.992H117.121C117.345 11.992 117.494 12.1093 117.569 12.344C117.707 12.8773 118.006 13.256 118.465 13.48C118.923 13.6933 119.462 13.8 120.081 13.8C120.838 13.8 121.441 13.624 121.889 13.272C122.337 12.9093 122.561 12.392 122.561 11.72C122.561 10.4293 121.777 9.784 120.209 9.784H118.689C118.582 9.784 118.491 9.752 118.417 9.688C118.353 9.61333 118.321 9.52267 118.321 9.416V8.984C118.321 8.83467 118.379 8.69067 118.497 8.552L121.601 5.16H116.881C116.774 5.16 116.683 5.128 116.609 5.064C116.545 4.98933 116.513 4.89867 116.513 4.792V4.184C116.513 4.07733 116.545 3.98667 116.609 3.912C116.683 3.83733 116.774 3.8 116.881 3.8H123.265C123.382 3.8 123.473 3.83733 123.536 3.912C123.611 3.976 123.649 4.06667 123.649 4.184V4.76C123.649 4.888 123.59 5.01067 123.473 5.128L120.385 8.568L120.641 8.584C121.729 8.616 122.587 8.89867 123.217 9.432C123.846 9.96533 124.161 10.744 124.161 11.768C124.161 12.4613 123.985 13.064 123.633 13.576C123.281 14.088 122.795 14.4827 122.177 14.76C121.558 15.0267 120.859 15.16 120.081 15.16ZM130.01 15.16C129.178 15.16 128.447 15.0267 127.818 14.76C127.189 14.4827 126.698 14.088 126.346 13.576C125.994 13.064 125.818 12.4667 125.818 11.784C125.818 11.1547 125.973 10.6053 126.282 10.136C126.591 9.656 127.013 9.288 127.546 9.032C127.119 8.78667 126.789 8.46667 126.554 8.072C126.33 7.66667 126.218 7.19733 126.218 6.664C126.218 5.72533 126.559 4.98933 127.242 4.456C127.935 3.912 128.858 3.64 130.01 3.64C131.151 3.64 132.063 3.912 132.746 4.456C133.439 4.98933 133.786 5.72 133.786 6.648C133.786 7.18133 133.669 7.65067 133.434 8.056C133.21 8.45067 132.89 8.776 132.474 9.032C133.007 9.288 133.429 9.656 133.738 10.136C134.047 10.6053 134.202 11.1547 134.202 11.784C134.202 12.4667 134.026 13.064 133.674 13.576C133.322 14.088 132.826 14.4827 132.186 14.76C131.557 15.0267 130.831 15.16 130.01 15.16ZM130.01 8.456C130.65 8.44533 131.189 8.28 131.626 7.96C132.063 7.64 132.282 7.21867 132.282 6.696C132.282 6.16267 132.063 5.736 131.626 5.416C131.199 5.08533 130.661 4.92 130.01 4.92C129.349 4.92 128.799 5.08 128.362 5.4C127.935 5.72 127.722 6.152 127.722 6.696C127.722 7.22933 127.935 7.656 128.362 7.976C128.799 8.296 129.349 8.456 130.01 8.456ZM130.01 13.88C130.757 13.88 131.381 13.688 131.882 13.304C132.383 12.92 132.634 12.4133 132.634 11.784C132.634 11.1547 132.383 10.6533 131.882 10.28C131.381 9.90667 130.757 9.72 130.01 9.72C129.253 9.72 128.623 9.90667 128.122 10.28C127.621 10.6533 127.37 11.1547 127.37 11.784C127.37 12.4133 127.621 12.92 128.122 13.304C128.623 13.688 129.253 13.88 130.01 13.88ZM136.378 15C136.271 15 136.18 14.968 136.106 14.904C136.042 14.8293 136.01 14.7387 136.01 14.632V13.48C136.01 13.3733 136.042 13.288 136.106 13.224C136.18 13.1493 136.271 13.112 136.378 13.112H137.53C137.636 13.112 137.727 13.1493 137.802 13.224C137.876 13.288 137.914 13.3733 137.914 13.48V14.632C137.914 14.7387 137.876 14.8293 137.802 14.904C137.727 14.968 137.636 15 137.53 15H136.378ZM140.121 15C140.014 15 139.923 14.968 139.849 14.904C139.785 14.8293 139.753 14.7387 139.753 14.632V14.12C139.753 13.8747 139.886 13.64 140.153 13.416L143.545 10.024C144.366 9.34133 144.931 8.78667 145.241 8.36C145.55 7.92267 145.705 7.464 145.705 6.984C145.705 6.36533 145.529 5.88 145.177 5.528C144.835 5.176 144.334 5 143.673 5C143.054 5 142.558 5.18667 142.185 5.56C141.811 5.92267 141.582 6.408 141.497 7.016C141.475 7.144 141.422 7.24 141.337 7.304C141.262 7.35733 141.177 7.384 141.081 7.384H140.249C140.153 7.384 140.073 7.35733 140.009 7.304C139.945 7.24 139.913 7.16533 139.913 7.08C139.934 6.504 140.089 5.95467 140.377 5.432C140.665 4.89867 141.086 4.46667 141.641 4.136C142.206 3.79467 142.883 3.624 143.673 3.624C144.878 3.624 145.785 3.93867 146.393 4.568C147.011 5.18667 147.321 5.976 147.321 6.936C147.321 7.608 147.15 8.216 146.809 8.76C146.478 9.29333 145.961 9.86933 145.257 10.488L142.185 13.608H147.177C147.294 13.608 147.385 13.6453 147.449 13.72C147.523 13.784 147.561 13.8693 147.561 13.976V14.632C147.561 14.7387 147.523 14.8293 147.449 14.904C147.374 14.968 147.283 15 147.177 15H140.121ZM153.287 15.16C152.434 15.16 151.693 14.9893 151.063 14.648C150.434 14.296 149.954 13.8267 149.623 13.24C149.293 12.6533 149.127 12.0133 149.127 11.32C149.127 10.7547 149.239 10.2213 149.463 9.72C149.698 9.208 149.959 8.75467 150.247 8.36L153.287 4.12C153.298 4.10933 153.33 4.072 153.383 4.008C153.426 3.944 153.485 3.896 153.559 3.864C153.634 3.82133 153.719 3.8 153.815 3.8H154.663C154.759 3.8 154.834 3.83733 154.887 3.912C154.951 3.976 154.983 4.056 154.983 4.152C154.983 4.22667 154.962 4.296 154.919 4.36L152.583 7.624C152.818 7.54933 153.122 7.512 153.495 7.512C154.263 7.52267 154.941 7.69867 155.527 8.04C156.125 8.38133 156.583 8.84 156.903 9.416C157.234 9.992 157.399 10.6213 157.399 11.304C157.399 11.9867 157.234 12.6267 156.903 13.224C156.583 13.8107 156.109 14.28 155.479 14.632C154.861 14.984 154.13 15.16 153.287 15.16ZM153.271 13.8C153.73 13.8 154.151 13.704 154.535 13.512C154.93 13.32 155.239 13.0373 155.463 12.664C155.698 12.28 155.815 11.8267 155.815 11.304C155.815 10.792 155.698 10.3493 155.463 9.976C155.239 9.60267 154.93 9.32 154.535 9.128C154.151 8.936 153.73 8.84 153.271 8.84C152.823 8.84 152.402 8.936 152.007 9.128C151.623 9.32 151.314 9.60267 151.079 9.976C150.845 10.3493 150.727 10.792 150.727 11.304C150.727 11.8267 150.845 12.28 151.079 12.664C151.314 13.0373 151.623 13.32 152.007 13.512C152.391 13.704 152.813 13.8 153.271 13.8Z" fill="#555555"/>
</svg>
